<?xml version="1.0" standalone="no"?>
<!DOCTYPE svg PUBLIC "-//W3C//DTD SVG 20010904//EN"
 "http://www.w3.org/TR/2001/REC-SVG-20010904/DTD/svg10.dtd">
<svg version="1.0" xmlns="http://www.w3.org/2000/svg"
 width="100.000000pt" height="100.000000pt" viewBox="0 0 100.000000 100.000000"
 preserveAspectRatio="xMidYMid meet">

<g transform="translate(0.000000,100.000000) scale(0.100000,-0.100000)"
fill="#000000" stroke="none">
<path d="M403 930 c-99 -26 -148 -53 -215 -121 -89 -88 -138 -210 -138 -339 0
-110 74 -259 168 -340 69 -59 190 -100 290 -99 42 1 88 5 102 9 15 5 -3 6 -42
3 -183 -15 -358 80 -436 236 -147 295 58 632 384 631 108 0 239 -51 302 -117
17 -19 32 -28 32 -21 0 7 9 2 20 -12 11 -14 20 -20 20 -14 0 20 -104 110 -170
146 -63 35 -151 59 -214 57 -17 0 -63 -9 -103 -19z"/>
<path d="M480 820 c0 -19 5 -52 11 -74 8 -31 8 -41 -3 -47 -9 -6 -14 -2 -16
14 -7 43 -34 -55 -42 -153 -11 -126 -36 -240 -57 -261 -10 -10 -38 -22 -63
-27 -44 -10 -43 -10 25 -9 l70 2 19 130 c10 72 20 132 22 134 2 3 14 -5 27
-17 13 -12 44 -29 69 -38 80 -27 119 -79 104 -139 -11 -42 -41 -65 -87 -65
-49 0 -75 25 -101 97 l-18 48 3 -77 c1 -43 -1 -78 -5 -78 -5 0 -8 -10 -8 -22
l0 -21 24 22 c21 20 27 21 72 11 89 -20 155 9 173 77 13 47 -4 87 -57 134 -33
29 -45 51 -66 119 -17 52 -23 87 -17 93 14 14 63 -13 78 -43 11 -23 13 -19 12
40 -1 36 -4 56 -6 45 -7 -28 -21 -34 -55 -24 -45 12 -57 26 -74 88 -20 70 -34
87 -34 41z m10 -155 c-7 -8 -17 -15 -22 -15 -6 0 -5 7 2 15 7 8 17 15 22 15 6
0 5 -7 -2 -15z m40 -47 c6 -24 15 -56 20 -72 19 -56 4 -62 -41 -17 -31 31 -38
75 -19 112 16 30 28 23 40 -23z m140 -207 c7 -17 10 -35 9 -40 -2 -6 -12 8
-21 29 -9 22 -13 40 -8 40 4 0 13 -13 20 -29z"/>
<path d="M916 667 c3 -10 9 -15 12 -12 3 3 0 11 -7 18 -10 9 -11 8 -5 -6z"/>
</g>
</svg>
